<?xml version="1.0" standalone="no"?>
<!DOCTYPE svg PUBLIC "-//W3C//DTD SVG 20010904//EN"
 "http://www.w3.org/TR/2001/REC-SVG-20010904/DTD/svg10.dtd">
<svg version="1.0" xmlns="http://www.w3.org/2000/svg"
 width="529.000000pt" height="529.000000pt" viewBox="0 0 529.000000 529.000000"
 preserveAspectRatio="xMidYMid meet">
<metadata>
Created by potrace 1.14, written by Peter Selinger 2001-2017
</metadata>
<g transform="translate(0.000000,529.000000) scale(0.100000,-0.100000)"
fill="#000000" stroke="none">
<path d="M2420 5280 c-301 -38 -527 -106 -774 -233 -535 -274 -932 -760 -1100
-1345 -30 -104 -40 -147 -60 -265 -28 -166 -29 -515 -1 -672 15 -82 37 -186
51 -235 8 -30 17 -62 19 -70 22 -90 152 -387 207 -475 121 -191 206 -302 321
-417 57 -58 91 -71 159 -65 97 9 158 71 164 167 3 59 -21 107 -90 178 -86 89
-184 219 -250 334 l-28 48 49 -21 c247 -108 555 -278 773 -427 68 -47 241
-173 250 -182 3 -3 28 -23 55 -45 50 -40 87 -71 109 -90 6 -5 31 -28 56 -49
152 -132 374 -362 523 -544 55 -66 66 -86 57 -97 -6 -8 -124 -127 -262 -265
l-251 -252 126 -126 126 -126 783 785 c431 432 809 815 842 850 97 105 194
243 296 419 9 15 60 119 86 175 47 101 113 318 138 450 27 146 31 198 31 395
0 246 -11 341 -61 546 -162 665 -632 1220 -1261 1488 -282 120 -547 173 -863
173 -91 0 -190 -4 -220 -7z m440 -354 c223 -33 398 -85 575 -170 530 -255 901
-738 1009 -1312 22 -119 28 -185 30 -323 2 -113 -2 -176 -19 -296 -11 -74 -15
-91 -39 -186 -74 -282 -231 -569 -429 -784 l-74 -79 -27 17 c-27 18 -151 85
-218 119 l-38 18 -1 108 c-1 59 -1 180 -2 270 l0 162 -353 0 -352 0 0 -107
c-1 -171 5 -154 -47 -134 -24 9 -47 20 -50 23 -4 4 -8 41 -11 84 -2 42 -8 91
-13 108 -8 26 -33 166 -33 181 1 2 -3 18 -8 34 -6 21 -3 37 10 58 39 65 33
149 -15 197 -14 14 -25 35 -25 47 0 35 -31 89 -61 104 -79 42 -166 -7 -175
-97 -1 -16 -10 -35 -18 -44 -15 -14 -16 -11 -16 30 0 38 -6 52 -35 85 -24 26
-35 48 -35 69 0 60 -70 114 -135 105 -35 -5 -83 -47 -92 -80 -8 -36 -28 -12
-54 64 -20 60 -20 67 -6 78 14 10 14 13 -4 31 -13 14 -35 79 -64 193 -53 206
-60 314 -24 375 l21 35 -31 38 c-16 21 -34 54 -39 73 l-9 35 -7 -30 c-3 -16
-22 -50 -41 -74 -33 -41 -34 -44 -20 -71 8 -16 18 -31 23 -34 14 -8 5 -178
-12 -236 -9 -30 -18 -62 -20 -70 -42 -162 -60 -217 -78 -233 -19 -16 -19 -19
-6 -30 14 -11 14 -18 -4 -72 -11 -33 -26 -67 -35 -77 -8 -9 -17 -40 -19 -70
-3 -29 -7 -59 -10 -66 -2 -7 -7 -50 -10 -95 -5 -72 -9 -84 -32 -102 -92 -72
-110 -120 -73 -189 22 -43 30 -146 11 -146 -6 0 -10 27 -10 60 0 51 -3 61 -22
72 -13 7 -31 11 -40 9 -21 -3 -19 -12 -22 122 -1 73 2 107 10 107 23 0 44 37
45 81 2 52 -11 81 -60 130 -20 20 -45 49 -56 65 -11 15 -24 32 -30 38 -5 6
-10 17 -11 24 -1 6 -2 22 -3 35 -1 18 -3 19 -11 7 -5 -8 -10 -23 -10 -33 0
-19 -11 -36 -47 -69 -13 -12 -23 -25 -23 -30 0 -4 -16 -23 -36 -42 -19 -18
-36 -40 -37 -47 -2 -8 -5 -18 -9 -24 -10 -17 -7 -89 5 -106 7 -9 19 -18 27
-21 11 -3 15 -26 16 -101 1 -53 -1 -96 -5 -95 -35 4 -50 -5 -56 -32 -4 -16
-11 -31 -16 -31 -5 -1 -14 -2 -21 -3 -7 0 -13 -17 -13 -36 -1 -19 -5 -43 -9
-52 -6 -14 -3 -18 15 -20 13 0 29 -2 34 -3 6 -2 25 -3 43 -4 23 -1 31 -5 26
-13 -5 -10 -4 -10 6 -1 8 8 18 9 24 4 6 -5 43 -12 81 -15 111 -10 178 -17 205
-21 14 -3 41 -7 60 -10 19 -3 60 -10 90 -15 30 -5 73 -12 95 -16 22 -3 58 -9
80 -14 22 -5 56 -12 75 -15 19 -3 114 -26 210 -50 322 -81 610 -190 930 -352
102 -51 192 -98 200 -103 8 -5 64 -39 125 -76 60 -37 143 -89 184 -117 l74
-49 -102 -101 c-79 -80 -103 -99 -113 -89 -7 7 -19 12 -29 12 -19 0 -324 -116
-324 -124 0 -2 33 -28 73 -56 39 -28 72 -54 72 -58 0 -3 -48 -55 -106 -113
l-106 -106 -87 86 c-532 528 -1180 931 -1884 1172 l-99 34 -29 58 c-16 31 -26
57 -21 57 5 0 32 -7 60 -15 36 -11 61 -13 84 -7 l33 9 -40 11 c-22 6 -66 14
-97 17 l-57 7 -25 67 c-88 238 -116 410 -111 676 4 207 5 220 41 377 59 260
175 504 346 728 28 36 100 115 162 175 240 235 508 385 842 469 98 25 139 32
244 42 30 4 56 7 58 8 5 6 300 -2 342 -8z m-498 -1906 c32 -32 59 -62 59 -66
6 -35 4 -74 -3 -74 -4 0 -8 13 -8 29 0 21 -14 43 -53 82 -71 72 -78 82 -83
121 l-5 33 18 -34 c9 -19 43 -60 75 -91z m-102 11 c0 -5 20 -30 45 -54 36 -36
45 -52 45 -79 l-1 -33 -13 31 c-8 18 -20 36 -28 41 -40 25 -83 103 -57 103 5
0 9 -4 9 -9z m439 -140 c54 -53 61 -65 60 -98 -1 -38 -1 -38 -9 -9 -5 16 -34
55 -63 85 -61 62 -77 89 -77 123 1 20 3 19 15 -9 8 -18 41 -60 74 -92z m-48
-54 c29 -28 39 -46 39 -70 l0 -32 -21 34 c-11 19 -32 43 -46 54 -13 11 -29 31
-34 44 -11 31 0 53 14 27 5 -11 27 -36 48 -57z m-234 -39 c-3 -8 -6 -5 -6 6
-1 11 2 17 5 13 3 -3 4 -12 1 -19z m-667 -7 c0 -5 23 -31 50 -59 41 -41 50
-56 49 -84 l-1 -33 -8 29 c-5 15 -28 48 -51 71 -43 44 -67 85 -49 85 6 0 10
-4 10 -9z m678 -18 c-3 -13 14 -57 29 -75 12 -14 13 -26 3 -71 -17 -83 -34
-89 -38 -14 -1 34 -4 86 -6 115 -2 28 0 52 5 52 5 0 8 -3 7 -7z m-698 -42 c0
-5 14 -22 30 -38 17 -16 32 -40 35 -51 5 -30 -9 -28 -23 3 -6 14 -16 25 -22
25 -5 0 -16 13 -25 30 -18 34 -18 40 -5 40 6 0 10 -4 10 -9z"/>
<path d="M3250 4470 c-10 -23 -21 -31 -54 -38 l-41 -8 28 -26 c26 -24 28 -31
22 -69 l-7 -43 25 17 c15 9 28 17 31 17 2 0 -2 -24 -10 -52 -8 -29 -30 -111
-49 -183 -20 -71 -37 -134 -38 -140 -2 -5 -9 -36 -17 -67 -10 -43 -18 -58 -31
-58 -10 0 -19 -10 -23 -25 -4 -14 -10 -24 -14 -24 -22 4 -29 -3 -24 -26 3 -16
11 -25 23 -25 17 0 19 -9 18 -92 0 -51 0 -100 0 -110 1 -15 5 -15 49 -1 64 19
196 19 251 -1 24 -9 45 -16 47 -16 1 0 2 48 1 106 0 68 3 108 10 112 6 4 15
20 18 35 6 21 4 27 -10 27 -9 0 -19 9 -22 20 -3 10 -14 22 -24 25 -10 4 -20
13 -20 21 -1 8 -2 17 -3 22 -1 4 -8 34 -16 67 -7 33 -15 65 -16 70 -1 6 -16
71 -33 145 -17 74 -34 143 -37 153 -6 18 -4 18 26 2 l31 -16 -6 41 c-5 36 -3
44 19 61 35 28 33 35 -13 43 -31 5 -41 12 -51 36 -16 38 -24 38 -40 0z m49
-682 c12 -12 24 -30 27 -41 5 -17 8 -16 25 12 10 17 25 31 32 31 11 0 47 -48
47 -64 0 -11 -223 -1 -227 10 -5 15 45 74 62 74 8 0 23 -10 34 -22z m-109 -60
c0 -4 -20 -8 -45 -8 -52 0 -57 12 -24 54 l21 27 24 -32 c13 -18 24 -37 24 -41z"/>
<path d="M3154 3487 c-27 -10 -53 -22 -58 -27 -4 -4 -8 -36 -7 -69 0 -34 -3
-61 -8 -61 -4 0 -8 -55 -9 -122 -1 -192 -4 -229 -19 -216 -10 8 -19 5 -37 -11
l-23 -22 -6 53 c-3 29 -8 64 -11 78 -3 13 -7 39 -8 58 -3 42 -18 53 -19 15 -2
-45 -6 -68 -14 -99 -9 -33 -17 -114 -14 -159 1 -36 1 -41 -6 -84 -3 -21 0 -38
7 -42 8 -5 10 -49 9 -143 l-2 -136 349 0 348 0 1 128 c1 70 4 140 7 155 4 15
3 33 -1 40 -3 6 -7 51 -8 99 -1 48 -3 89 -4 91 -4 4 -10 38 -17 97 -7 60 -18
85 -20 42 -1 -15 -5 -47 -9 -72 -4 -25 -8 -51 -8 -57 0 -7 -4 -13 -8 -13 -4 0
-5 -16 -3 -36 l3 -35 -33 28 c-29 25 -34 36 -39 93 -4 36 -7 109 -7 163 0 79
-3 97 -15 97 -12 0 -15 15 -15 73 l0 73 -57 19 c-77 24 -177 25 -239 2z m181
-171 c101 -66 37 -235 -82 -220 -46 6 -78 28 -97 69 -20 41 -20 56 -2 100 28
67 118 92 181 51z m98 -361 c-4 -55 -8 -64 -24 -48 -18 18 -22 94 -8 143 l12
45 12 -45 c6 -25 10 -67 8 -95z m-157 78 c14 -66 6 -133 -16 -133 -17 0 -25
68 -15 138 7 50 19 48 31 -5z m-152 -20 c-1 -98 -4 -114 -14 -108 -11 7 -13
106 -4 143 11 40 19 23 18 -35z m245 -77 c7 -8 11 -36 9 -63 -3 -48 -3 -48
-38 -47 -19 1 -37 2 -40 3 -6 1 -3 59 6 99 5 26 44 31 63 8z m-310 -18 c13
-21 15 -37 12 -80 -1 -11 -28 -15 -71 -9 -14 2 -12 85 2 99 19 19 42 14 57
-10z m142 12 c15 -8 19 -22 19 -60 l0 -50 -40 0 -40 0 0 50 c0 36 5 52 18 59
21 13 20 13 43 1z m315 -2 c11 -15 11 -78 1 -95 -4 -6 -21 -10 -39 -8 -33 2
-33 3 -36 59 l-3 56 34 0 c19 0 39 -6 43 -12z m-489 -239 c3 -38 0 -45 -16
-46 -16 -1 -19 5 -16 45 3 57 2 55 18 50 6 -3 13 -24 14 -49z m83 1 c0 -27 -4
-50 -9 -50 -16 0 -28 25 -26 55 3 44 4 45 20 45 11 0 15 -12 15 -50z m81 43
c5 -36 5 -74 -1 -84 -13 -21 -28 0 -28 38 0 41 4 53 19 53 5 0 10 -3 10 -7z
m90 -3 c8 -63 -1 -97 -23 -84 -10 6 -11 78 -1 87 10 10 23 8 24 -3z m89 -38
c0 -37 -4 -49 -15 -49 -16 0 -17 1 -17 52 0 46 0 45 17 45 11 0 15 -12 15 -48z
m81 36 c4 -45 3 -55 -4 -71 -13 -29 -27 -9 -27 39 0 32 4 44 15 44 8 0 15 -6
16 -12z m87 -27 c2 -18 1 -40 -2 -48 -9 -23 -37 4 -32 31 3 11 5 29 5 39 2 31
26 12 29 -22z"/>
<path d="M1221 2328 c-38 -11 -33 -18 24 -37 22 -7 49 -16 60 -21 11 -4 63
-23 115 -40 52 -18 138 -50 191 -70 l96 -37 76 26 c41 14 78 29 82 32 10 11
-146 54 -543 149 -49 12 -55 12 -101 -2z"/>
<path d="M1908 2116 c-84 -30 -114 -46 -90 -46 14 0 182 -75 314 -140 l87 -43
121 43 c66 23 120 44 120 46 0 7 -384 151 -445 167 -11 3 -59 -9 -107 -27z"/>
<path d="M2565 1859 c-44 -17 -102 -37 -128 -45 -27 -9 -47 -17 -45 -19 1 -2
53 -31 113 -65 131 -75 280 -165 373 -226 37 -24 74 -44 83 -44 14 0 74 23
154 60 11 5 45 19 75 31 73 29 77 34 43 51 -15 8 -94 49 -174 91 -121 63 -405
198 -412 197 -1 -1 -38 -15 -82 -31z"/>
</g>
</svg>
